<mxfile host="app.diagrams.net" agent="Mozilla/5.0 (Macintosh; Intel Mac OS X 10_15_7) AppleWebKit/537.36 (KHTML, like Gecko) Chrome/126.0.0.0 Safari/537.36" version="24.7.7">
  <diagram name="第 1 页" id="idrE5Sw0Dv49aaiKu3xb">
    <mxGraphModel dx="1479" dy="728" grid="1" gridSize="10" guides="1" tooltips="1" connect="1" arrows="1" fold="1" page="1" pageScale="1" pageWidth="1169" pageHeight="827" math="0" shadow="0">
      <root>
        <mxCell id="0" />
        <mxCell id="1" parent="0" />
        <mxCell id="2jZh4mgfiTlJO2iM2-cE-1" value="PC/Mobile" style="image;aspect=fixed;html=1;points=[];align=center;fontSize=12;image=img/lib/azure2/identity/Users.svg;" vertex="1" parent="1">
          <mxGeometry x="110" y="366" width="64" height="70" as="geometry" />
        </mxCell>
        <mxCell id="2jZh4mgfiTlJO2iM2-cE-4" value="SSO（Oauth）&lt;div&gt;（module）&lt;/div&gt;" style="rounded=1;whiteSpace=wrap;html=1;" vertex="1" parent="1">
          <mxGeometry x="801" y="108" width="120" height="60" as="geometry" />
        </mxCell>
        <mxCell id="2jZh4mgfiTlJO2iM2-cE-33" style="edgeStyle=orthogonalEdgeStyle;rounded=0;orthogonalLoop=1;jettySize=auto;html=1;" edge="1" parent="1" source="2jZh4mgfiTlJO2iM2-cE-6" target="2jZh4mgfiTlJO2iM2-cE-24">
          <mxGeometry relative="1" as="geometry" />
        </mxCell>
        <mxCell id="2jZh4mgfiTlJO2iM2-cE-6" value="Mysql DB&lt;div&gt;&lt;span style=&quot;color: rgb(16, 24, 40); font-family: ui-sans-serif, system-ui, sans-serif, &amp;quot;Apple Color Emoji&amp;quot;, &amp;quot;Segoe UI Emoji&amp;quot;, &amp;quot;Segoe UI Symbol&amp;quot;, &amp;quot;Noto Color Emoji&amp;quot;; font-size: 14px; text-align: start; text-wrap: wrap; background-color: rgb(242, 244, 247);&quot;&gt;Rocky Linux 9&lt;/span&gt;&lt;br&gt;&lt;/div&gt;" style="image;aspect=fixed;html=1;points=[];align=center;fontSize=12;image=img/lib/azure2/databases/Azure_Database_MySQL_Server.svg;" vertex="1" parent="1">
          <mxGeometry x="868" y="360" width="61.5" height="82" as="geometry" />
        </mxCell>
        <mxCell id="2jZh4mgfiTlJO2iM2-cE-35" style="edgeStyle=orthogonalEdgeStyle;rounded=0;orthogonalLoop=1;jettySize=auto;html=1;" edge="1" parent="1" source="2jZh4mgfiTlJO2iM2-cE-18" target="2jZh4mgfiTlJO2iM2-cE-24">
          <mxGeometry relative="1" as="geometry" />
        </mxCell>
        <mxCell id="2jZh4mgfiTlJO2iM2-cE-46" value="Analytic Task" style="edgeLabel;html=1;align=center;verticalAlign=middle;resizable=0;points=[];" vertex="1" connectable="0" parent="2jZh4mgfiTlJO2iM2-cE-35">
          <mxGeometry x="-0.2749" y="1" relative="1" as="geometry">
            <mxPoint as="offset" />
          </mxGeometry>
        </mxCell>
        <mxCell id="2jZh4mgfiTlJO2iM2-cE-18" value="Analytic DB（open source）&lt;div&gt;&lt;span style=&quot;color: rgb(16, 24, 40); font-family: ui-sans-serif, system-ui, sans-serif, &amp;quot;Apple Color Emoji&amp;quot;, &amp;quot;Segoe UI Emoji&amp;quot;, &amp;quot;Segoe UI Symbol&amp;quot;, &amp;quot;Noto Color Emoji&amp;quot;; font-size: 14px; text-align: start; text-wrap: wrap; background-color: rgb(242, 244, 247);&quot;&gt;Rocky Linux 9&lt;/span&gt;&lt;br&gt;&lt;/div&gt;" style="image;aspect=fixed;html=1;points=[];align=center;fontSize=12;image=img/lib/azure2/databases/Data_Factory.svg;" vertex="1" parent="1">
          <mxGeometry x="868" y="546" width="68" height="68" as="geometry" />
        </mxCell>
        <mxCell id="2jZh4mgfiTlJO2iM2-cE-19" style="edgeStyle=orthogonalEdgeStyle;rounded=0;orthogonalLoop=1;jettySize=auto;html=1;entryX=0.985;entryY=0.537;entryDx=0;entryDy=0;entryPerimeter=0;exitX=1.008;exitY=0.652;exitDx=0;exitDy=0;exitPerimeter=0;" edge="1" parent="1" source="2jZh4mgfiTlJO2iM2-cE-6" target="2jZh4mgfiTlJO2iM2-cE-18">
          <mxGeometry relative="1" as="geometry" />
        </mxCell>
        <mxCell id="2jZh4mgfiTlJO2iM2-cE-20" value="ETL" style="edgeLabel;html=1;align=center;verticalAlign=middle;resizable=0;points=[];" vertex="1" connectable="0" parent="2jZh4mgfiTlJO2iM2-cE-19">
          <mxGeometry x="0.1481" relative="1" as="geometry">
            <mxPoint as="offset" />
          </mxGeometry>
        </mxCell>
        <mxCell id="2jZh4mgfiTlJO2iM2-cE-30" style="edgeStyle=orthogonalEdgeStyle;rounded=0;orthogonalLoop=1;jettySize=auto;html=1;entryX=0;entryY=0.5;entryDx=0;entryDy=0;exitX=0.439;exitY=0.008;exitDx=0;exitDy=0;exitPerimeter=0;" edge="1" parent="1" source="2jZh4mgfiTlJO2iM2-cE-23" target="2jZh4mgfiTlJO2iM2-cE-4">
          <mxGeometry relative="1" as="geometry" />
        </mxCell>
        <mxCell id="2jZh4mgfiTlJO2iM2-cE-38" style="edgeStyle=orthogonalEdgeStyle;rounded=0;orthogonalLoop=1;jettySize=auto;html=1;" edge="1" parent="1" source="2jZh4mgfiTlJO2iM2-cE-23" target="2jZh4mgfiTlJO2iM2-cE-37">
          <mxGeometry relative="1" as="geometry" />
        </mxCell>
        <mxCell id="2jZh4mgfiTlJO2iM2-cE-48" style="edgeStyle=orthogonalEdgeStyle;rounded=0;orthogonalLoop=1;jettySize=auto;html=1;entryX=1;entryY=0.5;entryDx=0;entryDy=0;" edge="1" parent="1" source="2jZh4mgfiTlJO2iM2-cE-23" target="2jZh4mgfiTlJO2iM2-cE-47">
          <mxGeometry relative="1" as="geometry" />
        </mxCell>
        <mxCell id="2jZh4mgfiTlJO2iM2-cE-53" style="edgeStyle=orthogonalEdgeStyle;rounded=0;orthogonalLoop=1;jettySize=auto;html=1;entryX=0;entryY=0.5;entryDx=0;entryDy=0;exitX=0.424;exitY=-0.008;exitDx=0;exitDy=0;exitPerimeter=0;" edge="1" parent="1" source="2jZh4mgfiTlJO2iM2-cE-23" target="2jZh4mgfiTlJO2iM2-cE-52">
          <mxGeometry relative="1" as="geometry" />
        </mxCell>
        <mxCell id="2jZh4mgfiTlJO2iM2-cE-23" value="凯特全链路业务数据平台（Web Server）&lt;div&gt;Rocky Linux 9&lt;/div&gt;" style="image;aspect=fixed;html=1;points=[];align=center;fontSize=12;image=img/lib/azure2/databases/Virtual_Clusters.svg;" vertex="1" parent="1">
          <mxGeometry x="668" y="255" width="66" height="64" as="geometry" />
        </mxCell>
        <mxCell id="2jZh4mgfiTlJO2iM2-cE-24" value="QuickBI Server（License）&lt;div&gt;Rocky Linux9&lt;/div&gt;" style="image;aspect=fixed;html=1;points=[];align=center;fontSize=12;image=img/lib/azure2/databases/Virtual_Clusters.svg;" vertex="1" parent="1">
          <mxGeometry x="668" y="432" width="66" height="64" as="geometry" />
        </mxCell>
        <mxCell id="2jZh4mgfiTlJO2iM2-cE-34" style="edgeStyle=orthogonalEdgeStyle;rounded=0;orthogonalLoop=1;jettySize=auto;html=1;entryX=1.015;entryY=0.43;entryDx=0;entryDy=0;entryPerimeter=0;" edge="1" parent="1" source="2jZh4mgfiTlJO2iM2-cE-6" target="2jZh4mgfiTlJO2iM2-cE-23">
          <mxGeometry relative="1" as="geometry" />
        </mxCell>
        <mxCell id="2jZh4mgfiTlJO2iM2-cE-36" style="edgeStyle=orthogonalEdgeStyle;rounded=0;orthogonalLoop=1;jettySize=auto;html=1;" edge="1" parent="1" source="2jZh4mgfiTlJO2iM2-cE-24">
          <mxGeometry relative="1" as="geometry">
            <mxPoint x="701" y="312" as="targetPoint" />
          </mxGeometry>
        </mxCell>
        <mxCell id="2jZh4mgfiTlJO2iM2-cE-44" style="edgeStyle=orthogonalEdgeStyle;rounded=0;orthogonalLoop=1;jettySize=auto;html=1;" edge="1" parent="1" source="2jZh4mgfiTlJO2iM2-cE-37" target="2jZh4mgfiTlJO2iM2-cE-42">
          <mxGeometry relative="1" as="geometry" />
        </mxCell>
        <mxCell id="2jZh4mgfiTlJO2iM2-cE-37" value="Gateway" style="image;aspect=fixed;html=1;points=[];align=center;fontSize=12;image=img/lib/azure2/networking/Application_Gateways.svg;" vertex="1" parent="1">
          <mxGeometry x="488" y="255" width="64" height="64" as="geometry" />
        </mxCell>
        <mxCell id="2jZh4mgfiTlJO2iM2-cE-45" style="edgeStyle=orthogonalEdgeStyle;rounded=0;orthogonalLoop=1;jettySize=auto;html=1;" edge="1" parent="1" source="2jZh4mgfiTlJO2iM2-cE-42" target="2jZh4mgfiTlJO2iM2-cE-1">
          <mxGeometry relative="1" as="geometry" />
        </mxCell>
        <mxCell id="2jZh4mgfiTlJO2iM2-cE-55" value="流程配置&lt;div&gt;数据采录&lt;/div&gt;&lt;div&gt;数据分析（BI）&lt;/div&gt;" style="edgeLabel;html=1;align=center;verticalAlign=middle;resizable=0;points=[];" vertex="1" connectable="0" parent="2jZh4mgfiTlJO2iM2-cE-45">
          <mxGeometry x="0.0839" relative="1" as="geometry">
            <mxPoint as="offset" />
          </mxGeometry>
        </mxCell>
        <mxCell id="2jZh4mgfiTlJO2iM2-cE-56" style="edgeStyle=orthogonalEdgeStyle;rounded=0;orthogonalLoop=1;jettySize=auto;html=1;" edge="1" parent="1" source="2jZh4mgfiTlJO2iM2-cE-42" target="2jZh4mgfiTlJO2iM2-cE-50">
          <mxGeometry relative="1" as="geometry" />
        </mxCell>
        <mxCell id="2jZh4mgfiTlJO2iM2-cE-57" value="Data Integrate" style="edgeLabel;html=1;align=center;verticalAlign=middle;resizable=0;points=[];" vertex="1" connectable="0" parent="2jZh4mgfiTlJO2iM2-cE-56">
          <mxGeometry x="0.2796" y="3" relative="1" as="geometry">
            <mxPoint as="offset" />
          </mxGeometry>
        </mxCell>
        <mxCell id="2jZh4mgfiTlJO2iM2-cE-42" value="SLB" style="image;aspect=fixed;html=1;points=[];align=center;fontSize=12;image=img/lib/azure2/networking/Load_Balancers.svg;" vertex="1" parent="1">
          <mxGeometry x="484" y="365" width="72" height="72" as="geometry" />
        </mxCell>
        <mxCell id="2jZh4mgfiTlJO2iM2-cE-47" value="Data Integrater&lt;div&gt;（module）&lt;/div&gt;" style="rounded=1;whiteSpace=wrap;html=1;" vertex="1" parent="1">
          <mxGeometry x="478" y="135" width="120" height="60" as="geometry" />
        </mxCell>
        <mxCell id="2jZh4mgfiTlJO2iM2-cE-49" style="edgeStyle=orthogonalEdgeStyle;rounded=0;orthogonalLoop=1;jettySize=auto;html=1;entryX=0.484;entryY=-0.039;entryDx=0;entryDy=0;entryPerimeter=0;" edge="1" parent="1" source="2jZh4mgfiTlJO2iM2-cE-47" target="2jZh4mgfiTlJO2iM2-cE-37">
          <mxGeometry relative="1" as="geometry" />
        </mxCell>
        <mxCell id="2jZh4mgfiTlJO2iM2-cE-52" value="SMTP&lt;div&gt;Notifier&lt;/div&gt;&lt;div&gt;（module）&lt;/div&gt;" style="rounded=1;whiteSpace=wrap;html=1;" vertex="1" parent="1">
          <mxGeometry x="803" y="195" width="120" height="60" as="geometry" />
        </mxCell>
        <mxCell id="2jZh4mgfiTlJO2iM2-cE-54" value="FosunKite IDC" style="swimlane;whiteSpace=wrap;html=1;" vertex="1" parent="1">
          <mxGeometry x="270" y="70" width="800" height="630" as="geometry" />
        </mxCell>
        <mxCell id="2jZh4mgfiTlJO2iM2-cE-50" value="&lt;font style=&quot;font-size: 14px;&quot;&gt;物流监管系统&lt;/font&gt;&lt;div&gt;&lt;font style=&quot;font-size: 14px;&quot;&gt;数据集成&lt;/font&gt;&lt;/div&gt;" style="whiteSpace=wrap;html=1;verticalAlign=top;labelBackgroundColor=default;" vertex="1" parent="2jZh4mgfiTlJO2iM2-cE-54">
          <mxGeometry x="190" y="460" width="120" height="60" as="geometry" />
        </mxCell>
      </root>
    </mxGraphModel>
  </diagram>
</mxfile>
